<svg xmlns="http://www.w3.org/2000/svg" viewBox="0 0 168 168" id="data-edit"><circle cx="124" cy="42.5" r="4" fill="#2d4356"></circle><circle cx="136" cy="75.5" r="4" fill="#2d4356"></circle><circle cx="124" cy="108.5" r="4" fill="#2d4356"></circle><path fill="#2d4356" d="M28 56.5h50.928l1.572-3.649c.051-.12.117-.232.172-.35H28a4.005 4.005 0 0 1-4-4v-12a4.005 4.005 0 0 1 4-4h112a4.005 4.005 0 0 1 4 4v12a4.005 4.005 0 0 1-4 4h-28.715a17.704 17.704 0 0 1 1.864 4H140a8.024 8.024 0 0 0 8-8v-12a8.024 8.024 0 0 0-8-8H28a8.024 8.024 0 0 0-8 8v12a8.024 8.024 0 0 0 8 8Z"></path><path fill="#2d4356" d="M116 42.5a2 2 0 0 0-2-2H30a2 2 0 1 0 0 4h59.37c.15-.055.291-.122.443-.173a16.282 16.282 0 0 1 5.15-.827 16.992 16.992 0 0 1 5.726 1H114a2 2 0 0 0 2-2zm-88 47h36.716l1.722-4H28a4.005 4.005 0 0 1-4-4v-12a4.005 4.005 0 0 1 4-4h47.052l1.722-4H28a8.024 8.024 0 0 0-8 8v12a8.024 8.024 0 0 0 8 8zm120-20a8.024 8.024 0 0 0-8-8h-26.015a15.854 15.854 0 0 1-.484 4H140a4.005 4.005 0 0 1 4 4v12a4.005 4.005 0 0 1-4 4h-34.867l-1.723 4H140a8.024 8.024 0 0 0 8-8z"></path><path fill="#2d4356" d="M28 75.5a2 2 0 0 0 2 2h39.884l1.722-4H30a2 2 0 0 0-2 2zm88 0a2 2 0 0 0-2-2h-3.7l-1.722 4H114a2 2 0 0 0 2-2zm-88 47h26.542l-.288-4H28a4.005 4.005 0 0 1-4-4v-12a4.005 4.005 0 0 1 4-4h32.84l1.722-4H28a8.024 8.024 0 0 0-8 8v12a8.024 8.024 0 0 0 8 8zm61.2 0H140a8.024 8.024 0 0 0 8-8v-12a8.024 8.024 0 0 0-8-8h-38.743l-1.722 4H140a4.005 4.005 0 0 1 4 4v12a4.005 4.005 0 0 1-4 4H90.923z"></path><path fill="#2d4356" d="M28 108.5a2 2 0 0 0 2 2h25.672l1.722-4H30a2 2 0 0 0-2 2zm88 0a2 2 0 0 0-2-2H96.09l-1.722 4H114a2 2 0 0 0 2-2zM159 18a3 3 0 1 0-3 3 3.003 3.003 0 0 0 3-3zm-4.5 0a1.5 1.5 0 1 1 1.5 1.5 1.501 1.501 0 0 1-1.5-1.5zM74 12a3 3 0 1 0-3-3 3.003 3.003 0 0 0 3 3zm0-4.5A1.5 1.5 0 1 1 72.5 9 1.501 1.501 0 0 1 74 7.5zM160 41a2 2 0 1 0 2 2 2.002 2.002 0 0 0-2-2zm0 3a1 1 0 1 1 1-1 1.001 1.001 0 0 1-1 1zm-55-22a2 2 0 1 0-2-2 2.002 2.002 0 0 0 2 2zm0-3a1 1 0 1 1-1 1 1.001 1.001 0 0 1 1-1zM9 9a2 2 0 1 0-2 2 2.002 2.002 0 0 0 2-2zM6 9a1 1 0 1 1 1 1 1.001 1.001 0 0 1-1-1z"></path><circle cx="2" cy="141" r="2" fill="#2d4356"></circle><path fill="#2d4356" d="M11 139H8a2 2 0 0 0 0 4h3a2 2 0 0 0 0-4zm149 0h-3a2 2 0 0 0 0 4h3a2 2 0 0 0 0-4z"></path><circle cx="166" cy="141" r="2" fill="#2d4356"></circle><path fill="#2d4356" d="M150.721 139H67.31a2.795 2.795 0 0 0 .717-.403c1.075-.925 14.048-10.967 14.788-11.54.016-.012 26.238-60.783 26.238-60.783 2.65-6.18-.45-13.685-6.917-16.763l-1.467-.697a12.875 12.875 0 0 0-9.605-.69 11.298 11.298 0 0 0-6.903 6.306S57.975 115.18 58 115.19c.154.066 1.125 15.637 1.24 17.249.191 2.66 1.046 5.406 3.656 6.561H17.28a2.017 2.017 0 1 0 0 4H150.72a2.017 2.017 0 1 0 0-4ZM88.442 56.367a6.522 6.522 0 0 1 4.028-3.632 8.329 8.329 0 0 1 6.22.483l1.463.697c4.161 1.982 6.234 6.657 4.621 10.413l-24.236 56.237-16.404-7.804Zm-10.017 68.541-12.816 10.015a1.613 1.613 0 0 1-1.156-.121 1.754 1.754 0 0 1-.795-.886l-1.044-16.531Z"></path><circle cx="136" cy="42.5" r="4" fill="#0bceb2"></circle><circle cx="124" cy="75.5" r="4" fill="#0bceb2"></circle><circle cx="136" cy="108.5" r="4" fill="#0bceb2"></circle><path fill="#0bceb2" d="m11.583 43.011 1.487-1.955-.939-.532-.954 2.19h-.032l-.97-2.175-.955.548 1.471 1.909v.031l-2.3-.297v1.064l2.316-.297v.031L9.22 45.436l.892.564 1.018-2.206h.03l.939 2.19.986-.563-1.502-1.878v-.031l2.362.282V42.73l-2.362.312v-.031zM40.281 3.769l.856-1.126-.54-.306-.55 1.261h-.018l-.558-1.253-.551.316.848 1.099v.018l-1.325-.171v.613l1.334-.171v.018l-.857 1.099.514.324.586-1.27h.018l.54 1.261.568-.324-.865-1.082v-.018l1.36.163v-.613l-1.36.18v-.018zM50.823 20.453l-1.458 1.872.875.553.998-2.165h.03l.921 2.149.967-.552-1.473-1.842v-.031l2.317.276V19.67l-2.317.307v-.031l1.459-1.918-.921-.522-.936 2.148h-.032l-.951-2.133-.937.538 1.443 1.872v.031l-2.256-.292v1.043l2.271-.291v.031zM130.443 8.009l1.999.239v-.9l-1.999.264v-.026l1.258-1.655-.794-.45-.808 1.853h-.026l-.821-1.84-.808.464 1.245 1.615v.026l-1.947-.251v.9l1.96-.252v.027l-1.258 1.615.754.477.862-1.867h.025l.795 1.853.834-.476-1.271-1.589v-.027zM118.154 148h-8.308a2.006 2.006 0 0 0 0 4h8.308a2.006 2.006 0 0 0 0-4zm-60 0h-8.308a2.006 2.006 0 0 0 0 4h8.308a2.006 2.006 0 0 0 0-4zM104 148H64a2 2 0 0 0 0 4h15.94v2H72a2 2 0 0 0 0 4h25a2 2 0 0 0 0-4h-8.94v-2H104a2 2 0 0 0 0-4z"></path></svg>