<svg xmlns="http://www.w3.org/2000/svg" viewBox="0 0 512 512" id="statistics"><linearGradient id="a" x1="79.442" x2="517.537" y1="473.157" y2="35.062" gradientUnits="userSpaceOnUse"><stop offset="0" stop-color="#fcc60e"></stop><stop offset="1" stop-color="#e92e29"></stop></linearGradient><path fill="url(#a)" d="M504 217.855h-45.924a8 8 0 0 0-8 8V489.06a8 8 0 0 0 8 8H504a8 8 0 0 0 8-8V225.855a8 8 0 0 0-8-8zm-8 263.206h-29.924V233.855H496v247.206zm-80.268-223.283h-45.924a8 8 0 0 0-8 8v223.283a8 8 0 0 0 8 8h45.924a8 8 0 0 0 8-8V265.778a8 8 0 0 0-8-8zm-8 223.283h-29.924V273.778h29.924v207.283zm-80.267-183.36h-45.924a8 8 0 0 0-8 8v183.36a8 8 0 0 0 8 8h45.924a8 8 0 0 0 8-8v-183.36a8 8 0 0 0-8-8zm-8 183.36h-29.924v-167.36h29.924v167.36zm-80.268-143.438h-45.923a8 8 0 0 0-8 8v143.438a8 8 0 0 0 8 8h45.923a8 8 0 0 0 8-8V345.623a8 8 0 0 0-8-8zm-8 143.438h-29.923V353.623h29.923v127.438zM91.109 394.527a8 8 0 0 1-8 8H12.126a8 8 0 0 1 0-16h70.983a8 8 0 0 1 8 8zm70.983-40.535a8 8 0 0 1-8 8H12.126a8 8 0 0 1 0-16h141.966a8 8 0 0 1 8 8zM6.317 276.355a7.998 7.998 0 0 0-2.19 5.5v35.337a8 8 0 0 0 16 0v-32.151L44.4 259.398c24.666 22.84 57.645 36.825 93.833 36.825 58.785 0 109.109-36.889 129.061-88.731h19.29a8 8 0 0 0 6.928-4l31.626-54.778a8 8 0 0 0-13.856-8l-29.316 50.778h-9.613a138.05 138.05 0 0 0 4.114-33.501c0-37.126-14.716-70.877-38.616-95.736l33.081-31.315h32.151a8 8 0 0 0 0-16h-35.337a8.003 8.003 0 0 0-5.5 2.19l-36.15 34.22c-23.902-19.728-54.523-31.593-87.862-31.593C62.011 19.757 0 81.769 0 157.99c0 34.283 12.55 65.687 33.29 89.87L6.317 276.355zm205.142-68.863h38.523c-9.307 20.93-24.324 38.779-43.065 51.557l-54.699-93.052 107.975.048a121.555 121.555 0 0 1-4.396 25.447h-44.339a8 8 0 1 0 .001 16zm-31.612-101.347a7.976 7.976 0 0 0 5.811 2.5 7.97 7.97 0 0 0 5.498-2.19l35.08-33.206c19.462 20.204 32.048 47.069 33.965 76.796l-113.968-.051V36.026c25.665 1.667 49.194 11.286 68.143 26.418l-34.219 32.392a7.999 7.999 0 0 0-.31 11.309zM16 157.99C16 93.279 66.549 40.162 130.233 36.026V157.99c0 1.425.381 2.825 1.104 4.054l61.8 105.133c-16.518 8.34-35.17 13.046-54.903 13.046-31.935 0-61.043-12.315-82.839-32.439l40.248-42.518a7.999 7.999 0 0 0-.31-11.309 7.998 7.998 0 0 0-11.309.31l-39.671 41.909C26.661 214.968 16 187.702 16 157.99zM344.135 22.939a8 8 0 0 1 8-8h141.966a8 8 0 0 1 0 16H352.135a8 8 0 0 1-8-8zm0 40.536a8 8 0 0 1 8-8h70.983a8 8 0 0 1 0 16h-70.983a8 8 0 0 1-8-8zm0 77.866a8 8 0 0 1 8-8h141.966a8 8 0 0 1 0 16H352.135a8 8 0 0 1-8-8zm86.983 40.536a8 8 0 0 1-8 8h-70.983a8 8 0 0 1 0-16h70.983a8 8 0 0 1 8 8z"></path></svg>